<?xml version="1.0" encoding="UTF-8"?>
<svg id="Layer_2" xmlns="http://www.w3.org/2000/svg" version="1.1" viewBox="0 0 758.69 275.37">
  <defs>
    <style>
      .st0 { fill: #1D3557; }
    </style>
  </defs>
  <g id="Layer_1">
    <g>
      <g>
        <path class="st0" d="M178.4,133.4v-63.4c0-25.2-14.2-47-41.2-47s-41.2,27-41.2,51v59.4h-6.8v-59.4c0-24.6-14-51-41.4-51S6.6,49.8,6.6,74v59.4H0V21.4h6.6v24.2c7.8-17.6,21.4-28.8,41.2-28.8,24,0,39.2,14.8,44.8,37.4,6-22,20.6-37.4,44.6-37.4,31,0,48,23.8,48,53.2v63.4h-6.8Z"/>
        <path class="st0" d="M220.8,12.8V0h6.6v12.8h-6.6ZM220.8,133.4V21.4h6.6v112h-6.6Z"/>
        <path class="st0" d="M359.4,133.4v-63.4c0-27.6-13.8-47-43-47s-46.8,23.8-46.8,51v59.4h-6.6V21.2h6.6v23.8c9.2-18.6,26.6-28.2,47.2-28.2,33,0,49.2,21.6,49.2,53.2v63.4h-6.6Z"/>
        <path class="st0" d="M508.19,133.4v-29.8c-11,21.2-31.2,34.4-55.4,34.4-33.4,0-60.6-27.2-60.6-60.6s27.2-60.6,60.6-60.6c23.8,0,44.4,13.2,55.4,34.2V0h6.8v133.4h-6.8ZM452.79,23.2c-30,0-54,24.2-54,54.2s24,54.2,54,54.2,55.2-24,55.2-54.2-25.2-54.2-55.2-54.2Z"/>
      </g>
      <g>
        <path class="st0" d="M91.88,275.37c-35.84,0-55.21-17.71-55-53.97h6.59c-.21,31.72,17.1,47.38,48.41,47.38,18.95,0,52.73-7.42,52.73-31.72,0-43.88-101.97-7.62-101.97-54.18,0-26.57,28.02-32.34,49.23-32.34,31.31,0,56.24,11.12,56.03,46.35h-6.8c.21-30.9-22.25-39.76-49.23-39.76-17.1,0-42.43,3.5-42.43,25.75,0,38.11,101.97,3.09,101.97,54.18,0,30.69-35.43,38.31-59.53,38.31Z"/>
        <path class="st0" d="M227.83,275.37c-33.58,0-49.44-26.78-49.44-57.47v-84.66h6.8v22.04h87.55v6.18h-87.55v56.44c0,26.37,12.57,50.88,42.02,50.88,26.37,0,41.61-20.8,42.23-45.73h6.8c-.62,29.25-17.51,52.32-48.41,52.32Z"/>
        <path class="st0" d="M356.79,275.37c-30.9,0-53.56-24.31-53.56-54.79v-65.3h6.8v65.3c0,26.16,20.19,48.2,46.76,48.2s46.55-22.25,46.55-48.2v-65.3h7v65.3c0,30.49-22.87,54.79-53.56,54.79Z"/>
        <path class="st0" d="M556.81,270.63v-30.69c-11.33,21.83-32.13,35.43-57.06,35.43-34.4,0-62.42-28.01-62.42-62.42s28.02-62.42,62.42-62.42c24.51,0,45.73,13.6,57.06,35.23v-52.53h7v137.4h-7ZM499.75,157.13c-30.9,0-55.62,24.93-55.62,55.82s24.72,55.82,55.62,55.82,56.85-24.72,56.85-55.82-25.96-55.82-56.85-55.82Z"/>
        <path class="st0" d="M600.49,146.42v-13.18h6.8v13.18h-6.8ZM600.49,270.63v-115.36h6.8v115.36h-6.8Z"/>
        <path class="st0" d="M696.27,275.37c-34.2,0-62-28.22-62-62.42s27.81-62.42,62-62.42,62.42,28.02,62.42,62.42-27.81,62.42-62.42,62.42ZM696.27,157.13c-30.49,0-55.21,25.34-55.21,55.82s24.72,55.82,55.21,55.82,55.62-25.13,55.62-55.82-24.93-55.82-55.62-55.82Z"/>
      </g>
    </g>
  </g>
</svg>


